PathFileType	4	(X/Y/Z)	/Users/itak/Documents/Research/Walk-IL/dataset/trc/00496_00183.trc
DataRate	CameraRate	NumFrames	NumMarkers	Units	OrigDataRate	OrigDataStartFrame	OrigNumFrames
100.000000	100.000000	4	53	mm	100.000000	0	734
Frame#	Time	RPSI			LPSI			L3			STRN			T10			C7			CLAV			RBAK			LBAK			LSHO			LUPA			LAEL			LAOL			LWTS			LWPS			LFRA			LIFD			LHPS			LHTS			RSHO			RUPA			RAEL			RAOL			RWTS			RWPS			RFRA			RIFD			RHTS			RHPS			RBHD			LFHD			RFHD			LBHD			LHIP			RHIP			RASI			LASI			LKNE			LTHI			LANK			LTIP			LTOE			LMT1			LMT5			LHEE			RKNE			RTHI			RANK			RTIP			RTOE			RMT1			RMT5			RHEE			
		X1	Y1	Z1	X2	Y2	Z2	X3	Y3	Z3	X4	Y4	Z4	X5	Y5	Z5	X6	Y6	Z6	X7	Y7	Z7	X8	Y8	Z8	X9	Y9	Z9	X10	Y10	Z10	X11	Y11	Z11	X12	Y12	Z12	X13	Y13	Z13	X14	Y14	Z14	X15	Y15	Z15	X16	Y16	Z16	X17	Y17	Z17	X18	Y18	Z18	X19	Y19	Z19	X20	Y20	Z20	X21	Y21	Z21	X22	Y22	Z22	X23	Y23	Z23	X24	Y24	Z24	X25	Y25	Z25	X26	Y26	Z26	X27	Y27	Z27	X28	Y28	Z28	X29	Y29	Z29	X30	Y30	Z30	X31	Y31	Z31	X32	Y32	Z32	X33	Y33	Z33	X34	Y34	Z34	X35	Y35	Z35	X36	Y36	Z36	X37	Y37	Z37	X38	Y38	Z38	X39	Y39	Z39	X40	Y40	Z40	X41	Y41	Z41	X42	Y42	Z42	X43	Y43	Z43	X44	Y44	Z44	X45	Y45	Z45	X46	Y46	Z46	X47	Y47	Z47	X48	Y48	Z48	X49	Y49	Z49	X50	Y50	Z50	X51	Y51	Z51	X52	Y52	Z52	X53	Y53	Z53	

1	0	-1158.450805664062	976.5838012695312	-412.6711120605469	-1097.779052734375	974.1435546875	-521.2993774414062	-1138.406982421875	1039.07666015625	-475.7386779785156	-938.091552734375	1201.906616210938	-389.1078796386719	-1156.912841796875	1143.258422851562	-478.5873107910156	-1117.888061523438	1373.804077148438	-459.3544311523438	-972.6553955078125	1296.232543945312	-402.8872680664062	-1194.040161132812	1252.851440429688	-397.5442199707031	-1109.728149414062	1320.22509765625	-548.5999145507812	-995.0884399414062	1366.164184570312	-583.565673828125	-984.73681640625	1238.26171875	-641.54833984375	-965.9869384765625	1028.616577148438	-659.4189453125	-1063.108764648438	1022.264099121094	-630.9195556640625	-890.7791748046875	844.5758666992188	-586.3712768554688	-943.5517578125	810.8384399414062	-657.8342895507812	-942.7283935546875	960.6425170898438	-654.1353149414062	-896.0924682617188	685.5665893554688	-579.1788330078125	-924.8240356445312	757.0122680664062	-644.3272705078125	-875.68115234375	765.4578857421875	-600.062255859375	-1120.541870117188	1369.315063476562	-301.360595703125	-1156.133178710938	1300.202026367188	-254.77880859375	-1148.051025390625	1032.730712890625	-207.2992553710938	-1192.902587890625	1014.168884277344	-253.2355804443359	-1032.66259765625	835.2235717773438	-234.4068450927734	-1108.203002929688	812.0513916015625	-186.72021484375	-1140.419921875	978.184814453125	-199.9486083984375	-1032.054321289062	676.4161376953125	-236.6182556152344	-1017.760131835938	740.6141967773438	-210.4440612792969	-1084.729736328125	738.969970703125	-184.8807830810547	-1129.174682617188	1520.822998046875	-382.9302673339844	-955.2835693359375	1598.922607421875	-447.063720703125	-1020.031677246094	1592.100463867188	-337.1629943847656	-1061.090942382812	1523.06591796875	-526.7346801757812	-945.74072265625	895.459716796875	-588.8626098632812	-1128.418579101562	871.6666870117188	-259.7906799316406	-1004.095153808594	908.877197265625	-267.3975830078125	-896.0419311523438	923.7791748046875	-484.4616088867188	-983.7548217773438	472.7628784179688	-578.552734375	-951.0308837890625	629.447021484375	-580.429931640625	-1060.75146484375	47.03670501708984	-595.6531372070312	-1017.093139648438	327.9264221191406	-598.3519287109375	-903.6947631835938	44.89812469482422	-464.2228088378906	-987.0618896484375	46.76852416992188	-464.1229858398438	-955.6502075195312	42.91349029541016	-562.2733764648438	-1126.826416015625	46.79049682617188	-556.2382202148438	-1151.133666992188	485.9135437011719	-293.2126770019531	-1116.90283203125	741.92041015625	-245.0565338134766	-1165.411987304688	44.58826065063477	-335.6488952636719	-1151.893310546875	345.0887145996094	-302.6753540039062	-961.4518432617188	55.69832611083984	-323.4796752929688	-1016.270629882812	60.06190490722656	-374.86376953125	-1060.33935546875	47.70669555664062	-288.5432739257812	-1198.74755859375	37.43986892700195	-398.6370239257812	
2	0.01	-1158.47216796875	976.5830688476562	-412.6724243164062	-1097.809814453125	974.1500854492188	-521.2786865234375	-1138.423217773438	1039.079711914062	-475.7411499023438	-938.0982666015625	1201.90625	-389.1007995605469	-1156.925659179688	1143.260620117188	-478.5828857421875	-1117.922607421875	1373.82275390625	-459.2916564941406	-972.6676025390625	1296.233154296875	-402.8779296875	-1194.064453125	1252.85888671875	-397.5120544433594	-1109.777954101562	1320.237670898438	-548.5577392578125	-995.1390991210938	1366.144897460938	-583.5457763671875	-984.775146484375	1238.264526367188	-641.5328979492188	-966.0438232421875	1028.62646484375	-659.4146118164062	-1063.135620117188	1022.27490234375	-630.9252319335938	-890.8274536132812	844.5767822265625	-586.3885498046875	-943.5791015625	810.8433227539062	-657.8511352539062	-942.7840576171875	960.6505126953125	-654.1414184570312	-896.1503295898438	685.574951171875	-579.205322265625	-924.7882690429688	757.045654296875	-644.336669921875	-875.7364501953125	765.4520263671875	-600.0794067382812	-1120.559692382812	1369.304931640625	-301.3392028808594	-1156.137451171875	1300.193115234375	-254.7662353515625	-1148.056762695312	1032.71923828125	-207.2988739013672	-1192.937377929688	1014.190246582031	-253.1578979492188	-1032.67431640625	835.2166748046875	-234.4051513671875	-1108.216430664062	812.0393676757812	-186.7201843261719	-1140.4267578125	978.1658325195312	-199.9409332275391	-1032.089233398438	676.4009399414062	-236.6258392333984	-1017.772644042969	740.5974731445312	-210.4512939453125	-1084.747680664062	738.960205078125	-184.8795928955078	-1129.157104492188	1520.819213867188	-382.8746643066406	-955.2841186523438	1598.931884765625	-447.0066528320312	-1020.010009765625	1592.095458984375	-337.1181030273438	-1061.090576171875	1523.076538085938	-526.7020263671875	-945.7841796875	895.4677734375	-588.864501953125	-1128.443237304688	871.5880737304688	-259.771240234375	-1004.109130859375	908.8698120117188	-267.4043273925781	-896.0772705078125	923.7769775390625	-484.4728393554688	-983.7119140625	472.7479553222656	-578.50341796875	-951.04541015625	629.449951171875	-580.440673828125	-1060.751586914062	47.03554534912109	-595.6514282226562	-1017.112121582031	327.9191284179688	-598.3286743164062	-903.6959838867188	44.89459991455078	-464.2247314453125	-987.0730590820312	46.76691436767578	-464.1267700195312	-955.6481323242188	42.9212532043457	-562.2710571289062	-1126.825439453125	46.78429794311523	-556.2387084960938	-1151.14501953125	485.9111938476562	-293.2086791992188	-1116.901000976562	741.9152221679688	-245.0787353515625	-1165.408813476562	44.58343887329102	-335.6474914550781	-1151.902709960938	345.085205078125	-302.6703491210938	-961.451416015625	55.70657730102539	-323.4753112792969	-1016.274291992188	60.06426239013672	-374.8596496582031	-1060.337036132812	47.70382308959961	-288.5433044433594	-1198.851928710938	37.55450057983398	-398.6438903808594	
3	0.02	-1158.498046875	976.5827026367188	-412.6711120605469	-1097.845458984375	974.1570434570312	-521.2546997070312	-1138.44287109375	1039.0830078125	-475.7429504394531	-938.1075439453125	1201.904541015625	-389.0928955078125	-1156.940673828125	1143.264282226562	-478.5780029296875	-1117.962158203125	1373.841918945312	-459.2237548828125	-972.68310546875	1296.2333984375	-402.8647766113281	-1194.09423828125	1252.867797851562	-397.4726257324219	-1109.836669921875	1320.253173828125	-548.5153198242188	-995.1958618164062	1366.126586914062	-583.5216674804688	-984.8217163085938	1238.270141601562	-641.5138549804688	-966.1104736328125	1028.638427734375	-659.4096069335938	-1063.169311523438	1022.288391113281	-630.9308471679688	-890.8859252929688	844.578369140625	-586.4091186523438	-943.61083984375	810.8526000976562	-657.870849609375	-942.84423828125	960.6585083007812	-654.1478881835938	-896.2233276367188	685.5861206054688	-579.2398681640625	-924.7527465820312	757.084228515625	-644.34814453125	-875.7999877929688	765.4458618164062	-600.1001586914062	-1120.581787109375	1369.29248046875	-301.3114929199219	-1156.142944335938	1300.182006835938	-254.7516632080078	-1148.065063476562	1032.704711914062	-207.2970275878906	-1192.978149414062	1014.213195800781	-253.0678100585938	-1032.687622070312	835.20751953125	-234.4052581787109	-1108.228515625	812.0237426757812	-186.7190246582031	-1140.434936523438	978.1409301757812	-199.9331512451172	-1032.126953125	676.3843994140625	-236.6357879638672	-1017.785217285156	740.577392578125	-210.4603424072266	-1084.765991210938	738.9486694335938	-184.8811645507812	-1129.135620117188	1520.8154296875	-382.8068237304688	-955.2819213867188	1598.939819335938	-446.9355163574219	-1019.983276367188	1592.0869140625	-337.0598754882812	-1061.093139648438	1523.090698242188	-526.6633911132812	-945.8373413085938	895.476806640625	-588.864990234375	-1128.476440429688	871.507568359375	-259.7504577636719	-1004.123596191406	908.8602294921875	-267.4129333496094	-896.1207885742188	923.7750244140625	-484.4864807128906	-983.650390625	472.7280578613281	-578.4362182617188	-951.0608520507812	629.4547119140625	-580.4512329101562	-1060.752197265625	47.03537368774414	-595.6494750976562	-1017.130004882812	327.912841796875	-598.3060913085938	-903.6966552734375	44.89147186279297	-464.2275390625	-987.0847778320312	46.76556777954102	-464.1300354003906	-955.6499633789062	42.92486190795898	-562.268310546875	-1126.824462890625	46.77888107299805	-556.2395629882812	-1151.161254882812	485.9070129394531	-293.2041931152344	-1116.900146484375	741.9093017578125	-245.0985870361328	-1165.40673828125	44.57844924926758	-335.6448364257812	-1151.916259765625	345.0811157226562	-302.6635437011719	-961.450439453125	55.71405029296875	-323.4726257324219	-1016.281127929688	60.06779098510742	-374.8521423339844	-1060.334838867188	47.69925689697266	-288.5431213378906	-1198.97119140625	37.6824951171875	-398.6367492675781	
4	0.03	-1158.52685546875	976.5828857421875	-412.6659545898438	-1097.882934570312	974.1635131835938	-521.2296752929688	-1138.46533203125	1039.085815429688	-475.7431945800781	-938.119384765625	1201.901000976562	-389.0850830078125	-1156.957153320312	1143.269775390625	-478.5730590820312	-1118.003295898438	1373.85888671875	-459.1581115722656	-972.7013549804688	1296.233276367188	-402.847900390625	-1194.127807617188	1252.877319335938	-397.4282836914062	-1109.900634765625	1320.270263671875	-548.4779663085938	-995.2532348632812	1366.112915039062	-583.4948120117188	-984.8740844726562	1238.27880859375	-641.4921875	-966.1817016601562	1028.651611328125	-659.4043579101562	-1063.208374023438	1022.303894042969	-630.9356689453125	-890.9517211914062	844.58056640625	-586.4320068359375	-943.6444702148438	810.8670043945312	-657.8916625976562	-942.9031372070312	960.665771484375	-654.1539916992188	-896.306396484375	685.5999755859375	-579.281005859375	-924.723876953125	757.1243896484375	-644.3611450195312	-875.8668823242188	765.4402465820312	-600.123779296875	-1120.607177734375	1369.27783203125	-301.2782592773438	-1156.150024414062	1300.169189453125	-254.7355804443359	-1148.07568359375	1032.687744140625	-207.2932586669922	-1193.021240234375	1014.234252929688	-252.9741668701172	-1032.700927734375	835.1964721679688	-234.408203125	-1108.236938476562	812.0050659179688	-186.7164611816406	-1140.44384765625	978.11083984375	-199.9262542724609	-1032.16357421875	676.3681640625	-236.6481018066406	-1017.795959472656	740.5553588867188	-210.4710235595703	-1084.781616210938	738.9358520507812	-184.8865203857422	-1129.111572265625	1520.812744140625	-382.7304992675781	-955.275634765625	1598.944091796875	-446.8536987304688	-1019.952575683594	1592.074096679688	-336.9901733398438	-1061.09912109375	1523.108032226562	-526.620849609375	-945.8984985351562	895.4854736328125	-588.8637084960938	-1128.516235351562	871.4351806640625	-259.7308044433594	-1004.136779785156	908.8486938476562	-267.4230041503906	-896.1698608398438	923.77392578125	-484.5019226074219	-983.5745849609375	472.7049255371094	-578.3563842773438	-951.076904296875	629.4617309570312	-580.4609985351562	-1060.753173828125	47.03659057617188	-595.6473388671875	-1017.143981933594	327.9088134765625	-598.2875366210938	-903.6968994140625	44.88938522338867	-464.2308349609375	-987.0950317382812	46.76484680175781	-464.132080078125	-955.6553344726562	42.9239616394043	-562.2653198242188	-1126.82373046875	46.77477264404297	-556.2404174804688	-1151.181884765625	485.9008178710938	-293.199951171875	-1116.900634765625	741.9026489257812	-245.1131286621094	-1165.407470703125	44.57369232177734	-335.6409301757812	-1151.934204101562	345.076904296875	-302.6553344726562	-961.4495239257812	55.72018432617188	-323.4720764160156	-1016.291442871094	60.07240676879883	-374.8409729003906	-1060.33251953125	47.69371032714844	-288.5433959960938	-1199.092651367188	37.80918502807617	-398.6116027832031	
